<?xml version="1.0" encoding="utf-8"?>
<!-- Generator: Adobe Illustrator 19.1.0, SVG Export Plug-In . SVG Version: 6.00 Build 0)  -->
<!DOCTYPE svg PUBLIC "-//W3C//DTD SVG 1.1//EN" "http://www.w3.org/Graphics/SVG/1.1/DTD/svg11.dtd">
<svg version="1.1" id="Layer_1" xmlns="http://www.w3.org/2000/svg" xmlns:xlink="http://www.w3.org/1999/xlink" x="0px" y="0px"
	 viewBox="-223 65 512 512" style="enable-background:new -223 65 512 512;" xml:space="preserve">
<style type="text/css">
	.st0{fill:#ABABAB;}
</style>
<path id="speech-bubble-14-icon" class="st0" d="M217.7,456.8c13.6-16.4,21.3-37.6,21.3-59.1c0-35.3-19.9-65-49.4-83.8
	c4.2-13.1,6.4-26.6,6.4-40.3c0-90.2-87.6-155.3-184.5-155.3C-86,118.3-173,183.9-173,273.6c0,31.8,11.4,63.1,31.5,87.3
	c0.8,28.4-15.7,69.2-30.6,98.8c40-7.3,96.9-23.4,122.7-39.4c15.1,3.7,29.8,6,44,7.1c17.9,50.6,80.2,89.3,160.9,69.5
	c17.5,10.8,55.9,21.7,83,26.6C228.3,503.6,217.1,476,217.7,456.8z M-50.6,383c-34.6,20.2-65,28.3-65,28.3s10.3-27.8,14.6-59.7
	c-21.1-21.5-36-43.3-36-78c0-65.8,66.6-119.4,148.6-119.4c81.9,0,148.6,53.6,148.6,119.4C160,341.8,81.7,418.1-50.6,383z
	 M195.9,486.5c0,0-19.6-5.2-41.8-18.2c-65.7,17.4-110.7-7.9-127.7-40.5c70.4-4.1,124.8-40,151.5-87.1c19.6,14.1,31.9,34.5,31.9,57.2
	c0,22.3-9.6,36.3-23.2,50.1C189.2,468.6,195.9,486.5,195.9,486.5z"/>
</svg>
